<?xml version="1.0"?>
<svg xmlns="http://www.w3.org/2000/svg" viewBox="0 0 64 64" width="512" height="512"><g id="smartphone-online-money"><path d="M47,35A12,12,0,1,0,59,47,12.01,12.01,0,0,0,47,35Zm0,22A10,10,0,1,1,57,47,10.016,10.016,0,0,1,47,57Z"/><path d="M47,32V5a3.009,3.009,0,0,0-3-3H20a3.009,3.009,0,0,0-3,3V17.11A5.031,5.031,0,0,0,14,19a.6.6,0,0,0-.09.15L5.61,35.56a5.031,5.031,0,0,0-.53,2.61L6,51.07c.01.05.01.1.02.15L7.98,60H6v2H25V60H23.05l.82-2.46,1.84-1.83a1.1,1.1,0,0,0,.18-.26l1-2A1,1,0,0,0,27,53V48h5.05A14.992,14.992,0,1,0,47,32ZM37,4a.949.949,0,0,1-.31.71A.928.928,0,0,1,36,5H28a1,1,0,0,1-1-1ZM24.17,42.45A.967.967,0,0,0,24,43v3a1,1,0,0,0,.11.45L25,48.24v4.52l-.82,1.65-1.89,1.88a1.058,1.058,0,0,0-.24.39l-1,3A1.185,1.185,0,0,0,21,60H10a1.635,1.635,0,0,0-.02-.22L7.99,50.86,7.08,38.03a3.055,3.055,0,0,1,.31-1.57l8.26-16.33A3.041,3.041,0,0,1,17,19.19V35.9a2.988,2.988,0,0,1-.73.1H15v2h1.27a5,5,0,0,0,3.58-1.51l7.7-6.86a1.988,1.988,0,0,1,2.74.08l.26.26a1.986,1.986,0,0,1,.25,2.52ZM26.12,46,26,45.76V43.3l6.47-9.7a4.025,4.025,0,0,0-.5-5.05l-.26-.26a4.01,4.01,0,0,0-5.49-.15L19,34.57V5a1,1,0,0,1,1-1h5a3.009,3.009,0,0,0,3,3h8a3,3,0,0,0,3-3h5a1,1,0,0,1,1,1V32.15A15,15,0,0,0,32.05,46ZM47,60A13,13,0,1,1,60,47,13.012,13.012,0,0,1,47,60Z"/><path d="M49,46H48V42h1a2.006,2.006,0,0,1,2,2h2a4,4,0,0,0-4-4H48V38H46v2H45a4,4,0,0,0,0,8h1v4H45a2.006,2.006,0,0,1-2-2H41a4,4,0,0,0,4,4h1v2h2V54h1a4,4,0,0,0,0-8Zm-3,0H45a2,2,0,0,1,0-4h1Zm3,6H48V48h1a2,2,0,0,1,0,4Z"/><path d="M38,14.41l.71-.7-1.42-1.42-.56.57A6.972,6.972,0,1,0,38,14.41ZM32,23a5,5,0,1,1,3.31-8.72L32,17.59l-1.29-1.3-1.42,1.42,2,2a1.014,1.014,0,0,0,1.42,0l3.81-3.82A4.977,4.977,0,0,1,32,23Z"/></g></svg>
